#N canvas 480 235 1440 722 10;
#X text 317 75 LED;
#N canvas 0 94 450 300 net 0;
#X obj 106 43 netreceive -u 8099;
#X obj 106 88 s \$0-clock;
#X connect 0 0 1 0;
#X restore 147 0 pd net;
#X obj 224 6 r \$0-clock;
#X obj 225 61 mod 96;
#X floatatom 169 110 5 0 0 0 - - -;
#X obj 224 33 spigot;
#X obj 295 40 tgl 15 0 empty empty empty 17 7 0 10 -262144 -1 -1 0
1;
#X obj 70 -7 tgl 15 0 empty empty empty 17 7 0 10 -262144 -1 -1 0 1
;
#X floatatom 62 184 5 0 0 0 - - -;
#X obj 74 110 int;
#X obj 74 146 + 1;
#X obj 71 29 t f b;
#X msg 105 109 -1;
#X obj 82 385 pack;
#X msg 83 418 /seq/spd/\$1 \$2;
#X obj 84 464 s 2OSC;
#X msg 83 335 1 6;
#N canvas 515 221 450 394 footPedal 0;
#X obj 127 126 comport 1 115200;
#X msg 196 84 close;
#X msg 261 65 devices;
#X msg 191 -28 open 6;
#X obj 57 140 print;
#X msg 70 75 1 0;
#X msg 88 43 17;
#X obj 81 186 sel 250;
#X obj 228 222 spigot;
#X obj 127 159 t f f b;
#X msg 285 171 0;
#X obj 120 225 moses 200;
#X floatatom 147 314 5 0 0 0 - - -;
#X floatatom 108 286 5 0 0 0 - - -;
#X obj 190 310 outlet;
#X obj 249 -3 loadbang;
#X obj 172 257 - 199;
#X connect 0 0 4 0;
#X connect 0 0 9 0;
#X connect 2 0 0 0;
#X connect 3 0 0 0;
#X connect 5 0 0 0;
#X connect 6 0 0 0;
#X connect 7 1 11 0;
#X connect 9 0 7 0;
#X connect 11 0 13 0;
#X connect 11 1 16 0;
#X connect 16 0 12 0;
#X connect 16 0 14 0;
#X restore 103 285 pd footPedal;
#X obj 136 326 t b f;
#X msg 124 353 0;
#X floatatom 170 38 5 0 0 0 - - -;
#X obj 481 329 r clock;
#X obj 485 408 list prepend send;
#X obj 485 436 list trim;
#X obj 571 435 loadbang;
#X obj 485 479 netsend -u;
#X msg 571 462 connect 192.168.1.255 8099;
#X obj 485 373 spigot;
#X obj 544 355 r run;
#X floatatom 660 360 5 0 0 0 - - -;
#X obj 764 48 midirealtimein;
#X obj 1184 238 print, f 4;
#X obj 769 212 int;
#X obj 764 106 sel 248 250 252;
#X obj 768 281 + 1;
#X msg 859 144 -1;
#X msg 865 167 0;
#X obj 956 45 netreceive -u 8000;
#X obj 955 125 s fromAll;
#X obj 1019 146 route gharp;
#X obj 1033 194 route note;
#X obj 1000 278 + 36;
#X obj 1037 223 unpack;
#X obj 74 60 metro 30;
#N canvas 2873 0 958 988 xyPedal 0;
#X obj 283 112 comport 1 115200;
#X msg 346 33 devices;
#X obj 257 267 int;
#X msg 259 214 0;
#X obj 283 173 sel 255 254, f 12;
#X obj 317 220 t f b f;
#X obj 317 364 spigot;
#X obj 364 364 spigot;
#X obj 287 267 + 1;
#X obj 322 317 == 2;
#X obj 398 328 == 1;
#X obj 365 396 * 100;
#X obj 365 427 t b f;
#X obj 307 468 +;
#X msg 363 74 close;
#X obj 140 379 spigot;
#X obj 187 379 spigot;
#X obj 188 411 * 100;
#X obj 188 442 t b f;
#X obj 130 483 +;
#X obj 221 343 == 3;
#X obj 145 332 == 4;
#X msg 293 719 3df-2 \$1;
#X obj 293 587 / 1000;
#X obj 235 35 loadbang;
#X msg 116 711 3df-1 \$1;
#X obj 293 563 int;
#X obj 293 542 r rsmplclock;
#X obj 116 595 / 1000;
#X obj 116 571 int;
#X obj 116 550 r rsmplclock;
#X obj 283 75 inlet;
#X obj 116 644 clip 0.1 1;
#X obj 116 665 -;
#X obj 116 685 /;
#X obj 159 685 -;
#X msg 159 665 1;
#X obj 144 619 t f b f;
#X msg 218 602 0.06;
#X obj 293 640 clip 0.1 1;
#X obj 293 661 -;
#X obj 293 681 /;
#X obj 336 681 -;
#X msg 336 661 1;
#X obj 321 615 t f b f;
#X obj 214 569 loadbang;
#X msg 202 103 1;
#X msg 173 103 0;
#X msg 235 59 open 7;
#X obj 204 521 metro 50;
#X obj 202 543 s rsmplclock;
#X obj 213 493 tgl 15 0 empty empty empty 17 7 0 10 -262144 -1 -1 0
1;
#X obj 105 934 ctlout;
#X obj 120 849 pack f 2 1;
#X obj 121 883 unpack 0 0 0;
#X obj 134 758 * 128;
#X obj 271 872 unpack 0 0 0;
#X obj 289 780 * 128;
#X obj 270 838 pack f 3 1;
#X floatatom 332 809 5 0 0 0 - - -;
#X obj 274 926 ctlout;
#X connect 0 0 4 0;
#X connect 1 0 0 0;
#X connect 2 0 8 0;
#X connect 2 0 9 0;
#X connect 2 0 10 0;
#X connect 2 0 20 0;
#X connect 2 0 21 0;
#X connect 3 0 2 0;
#X connect 4 0 3 0;
#X connect 4 2 5 0;
#X connect 5 0 6 0;
#X connect 5 0 7 0;
#X connect 5 0 15 0;
#X connect 5 0 16 0;
#X connect 5 1 2 0;
#X connect 6 0 13 0;
#X connect 7 0 11 0;
#X connect 8 0 2 1;
#X connect 9 0 6 1;
#X connect 10 0 7 1;
#X connect 11 0 12 0;
#X connect 12 0 13 0;
#X connect 12 1 13 1;
#X connect 13 0 26 1;
#X connect 14 0 0 0;
#X connect 15 0 19 0;
#X connect 16 0 17 0;
#X connect 17 0 18 0;
#X connect 18 0 19 0;
#X connect 18 1 19 1;
#X connect 19 0 29 1;
#X connect 20 0 16 1;
#X connect 21 0 15 1;
#X connect 23 0 39 0;
#X connect 24 0 48 0;
#X connect 26 0 23 0;
#X connect 27 0 26 0;
#X connect 28 0 32 0;
#X connect 29 0 28 0;
#X connect 30 0 29 0;
#X connect 31 0 0 0;
#X connect 32 0 33 0;
#X connect 33 0 34 0;
#X connect 34 0 25 0;
#X connect 34 0 55 0;
#X connect 35 0 34 1;
#X connect 36 0 35 0;
#X connect 37 0 32 1;
#X connect 37 0 33 1;
#X connect 37 1 36 0;
#X connect 37 2 35 1;
#X connect 38 0 37 0;
#X connect 38 0 44 0;
#X connect 39 0 40 0;
#X connect 40 0 41 0;
#X connect 41 0 22 0;
#X connect 41 0 57 0;
#X connect 42 0 41 1;
#X connect 43 0 42 0;
#X connect 44 0 39 1;
#X connect 44 0 40 1;
#X connect 44 1 43 0;
#X connect 44 2 42 1;
#X connect 45 0 38 0;
#X connect 46 0 0 0;
#X connect 47 0 0 0;
#X connect 48 0 0 0;
#X connect 49 0 50 0;
#X connect 51 0 49 0;
#X connect 53 0 54 0;
#X connect 54 0 52 0;
#X connect 54 1 52 1;
#X connect 54 2 52 2;
#X connect 55 0 53 0;
#X connect 56 0 60 0;
#X connect 56 1 60 1;
#X connect 56 2 60 2;
#X connect 57 0 58 0;
#X connect 58 0 56 0;
#X connect 59 0 58 0;
#X restore 350 484 pd xyPedal;
#X msg 779 142 -1;
#X obj 709 153 spigot;
#N canvas 454 443 785 433 midiout 0;
#X msg 108 212 248;
#X msg 140 220 250;
#X obj 220 162 int;
#X obj 256 179 + 1;
#X obj 218 90 t b b;
#X msg 220 113 1;
#X msg 293 109 0;
#X obj 220 206 sel 1;
#X msg 221 251 252;
#X obj 108 296 midiout;
#X obj 220 139 metro 250;
#X obj 108 -42 r clock;
#X obj 108 73 t f f b;
#X obj 108 114 sel 0;
#X obj 108 170 t b b;
#X obj 128 -9 / 2;
#X obj 128 17 int;
#X obj 128 44 change;
#X obj 362 112 r notes;
#X obj 362 143 unpack 0 0 0;
#X floatatom 326 176 5 0 0 0 - - -;
#X floatatom 426 169 5 0 0 0 - - -;
#X obj 362 199 noteout 1;
#X obj 25 0 r \$0-clock;
#X floatatom 24 44 5 0 0 0 - - -;
#X connect 0 0 9 0;
#X connect 1 0 9 0;
#X connect 2 0 3 0;
#X connect 2 0 7 0;
#X connect 3 0 2 1;
#X connect 4 0 5 0;
#X connect 4 1 6 0;
#X connect 5 0 10 0;
#X connect 6 0 2 1;
#X connect 7 0 8 0;
#X connect 8 0 9 0;
#X connect 10 0 2 0;
#X connect 12 0 13 0;
#X connect 12 2 4 0;
#X connect 13 0 1 0;
#X connect 13 1 0 0;
#X connect 14 0 0 0;
#X connect 14 1 1 0;
#X connect 15 0 16 0;
#X connect 16 0 17 0;
#X connect 19 0 20 0;
#X connect 19 0 22 0;
#X connect 19 1 21 0;
#X connect 19 1 22 1;
#X connect 23 0 24 0;
#X restore 270 267 pd midiout;
#X floatatom 409 332 5 0 0 0 - - -;
#X obj 931 369 print;
#X floatatom 979 252 5 0 0 0 - - -;
#X obj 1036 321 noteout 17;
#X connect 2 0 20 0;
#X connect 3 0 4 0;
#X connect 5 0 3 0;
#X connect 6 0 5 1;
#X connect 7 0 11 0;
#X connect 8 0 5 0;
#X connect 9 0 10 0;
#X connect 10 0 9 1;
#X connect 10 0 8 0;
#X connect 11 0 43 0;
#X connect 11 1 12 0;
#X connect 12 0 10 0;
#X connect 13 0 14 0;
#X connect 14 0 15 0;
#X connect 16 0 13 0;
#X connect 17 0 18 0;
#X connect 18 0 19 0;
#X connect 18 1 13 1;
#X connect 19 0 13 0;
#X connect 21 0 48 0;
#X connect 22 0 23 0;
#X connect 24 0 26 0;
#X connect 26 0 25 0;
#X connect 27 0 22 0;
#X connect 28 0 27 1;
#X connect 29 0 22 0;
#X connect 30 0 33 0;
#X connect 32 0 34 0;
#X connect 33 0 46 0;
#X connect 33 1 45 0;
#X connect 33 2 35 0;
#X connect 34 0 32 1;
#X connect 35 0 32 1;
#X connect 35 0 36 0;
#X connect 36 0 46 1;
#X connect 37 0 38 0;
#X connect 37 0 39 0;
#X connect 39 0 40 0;
#X connect 40 0 31 0;
#X connect 40 0 42 0;
#X connect 41 0 49 0;
#X connect 41 0 51 0;
#X connect 42 0 41 0;
#X connect 42 0 50 0;
#X connect 42 1 51 1;
#X connect 43 0 9 0;
#X connect 45 0 32 0;
#X connect 45 0 46 1;
#X connect 46 0 32 0;
